<mxfile host="65bd71144e">
    <diagram id="9TPyMgF_mi7_yLZigMqu" name="Page-1">
        <mxGraphModel dx="843" dy="378" grid="1" gridSize="10" guides="1" tooltips="1" connect="1" arrows="1" fold="1" page="1" pageScale="1" pageWidth="850" pageHeight="1100" math="0" shadow="0">
            <root>
                <mxCell id="0"/>
                <mxCell id="1" parent="0"/>
                <mxCell id="2" value="&lt;font style=&quot;font-size: 12px;&quot;&gt;BERT&lt;/font&gt;" style="rounded=1;whiteSpace=wrap;html=1;fontSize=12;" parent="1" vertex="1">
                    <mxGeometry x="45" y="195" width="380" height="20" as="geometry"/>
                </mxCell>
                <mxCell id="3" value="覺" style="whiteSpace=wrap;html=1;aspect=fixed;fontSize=14;" parent="1" vertex="1">
                    <mxGeometry x="95" y="245" width="30" height="30" as="geometry"/>
                </mxCell>
                <mxCell id="4" value="得" style="whiteSpace=wrap;html=1;aspect=fixed;fontSize=14;" parent="1" vertex="1">
                    <mxGeometry x="145" y="245" width="30" height="30" as="geometry"/>
                </mxCell>
                <mxCell id="5" value="非" style="whiteSpace=wrap;html=1;aspect=fixed;fontSize=14;" parent="1" vertex="1">
                    <mxGeometry x="195" y="245" width="30" height="30" as="geometry"/>
                </mxCell>
                <mxCell id="6" value="常" style="whiteSpace=wrap;html=1;aspect=fixed;fontSize=14;" parent="1" vertex="1">
                    <mxGeometry x="245" y="245" width="30" height="30" as="geometry"/>
                </mxCell>
                <mxCell id="7" value="榮" style="whiteSpace=wrap;html=1;aspect=fixed;fontSize=14;" parent="1" vertex="1">
                    <mxGeometry x="295" y="245" width="30" height="30" as="geometry"/>
                </mxCell>
                <mxCell id="9" value="幸" style="whiteSpace=wrap;html=1;aspect=fixed;fontSize=14;" parent="1" vertex="1">
                    <mxGeometry x="345" y="245" width="30" height="30" as="geometry"/>
                </mxCell>
                <mxCell id="12" value="&lt;font style=&quot;font-size: 11px&quot;&gt;[CLS]&lt;/font&gt;" style="whiteSpace=wrap;html=1;aspect=fixed;fontSize=11;" parent="1" vertex="1">
                    <mxGeometry x="45" y="245" width="30" height="30" as="geometry"/>
                </mxCell>
                <mxCell id="13" value="&lt;font style=&quot;font-size: 11px&quot;&gt;[SEP]&lt;/font&gt;" style="whiteSpace=wrap;html=1;aspect=fixed;fontSize=11;" parent="1" vertex="1">
                    <mxGeometry x="395" y="245" width="30" height="30" as="geometry"/>
                </mxCell>
                <mxCell id="45" value="Linear" style="whiteSpace=wrap;html=1;fontSize=12;" parent="1" vertex="1">
                    <mxGeometry x="95" y="145" width="290" height="20" as="geometry"/>
                </mxCell>
                <mxCell id="66" value="Softmax" style="whiteSpace=wrap;html=1;fontSize=12;" parent="1" vertex="1">
                    <mxGeometry x="95" y="95" width="290" height="20" as="geometry"/>
                </mxCell>
                <mxCell id="124" value="" style="group" parent="1" vertex="1" connectable="0">
                    <mxGeometry x="50" y="120" width="370" height="20" as="geometry"/>
                </mxCell>
                <mxCell id="117" value="" style="html=1;shadow=0;dashed=0;align=center;verticalAlign=middle;shape=mxgraph.arrows2.arrow;dy=0.5;dx=11.18;direction=north;notch=0;fontSize=12;container=0;" parent="124" vertex="1">
                    <mxGeometry x="50" width="20" height="20" as="geometry"/>
                </mxCell>
                <mxCell id="118" value="" style="html=1;shadow=0;dashed=0;align=center;verticalAlign=middle;shape=mxgraph.arrows2.arrow;dy=0.5;dx=11.18;direction=north;notch=0;fontSize=12;container=0;" parent="124" vertex="1">
                    <mxGeometry x="100" width="20" height="20" as="geometry"/>
                </mxCell>
                <mxCell id="119" value="" style="html=1;shadow=0;dashed=0;align=center;verticalAlign=middle;shape=mxgraph.arrows2.arrow;dy=0.5;dx=11.18;direction=north;notch=0;fontSize=12;container=0;" parent="124" vertex="1">
                    <mxGeometry x="150" width="20" height="20" as="geometry"/>
                </mxCell>
                <mxCell id="120" value="" style="html=1;shadow=0;dashed=0;align=center;verticalAlign=middle;shape=mxgraph.arrows2.arrow;dy=0.5;dx=11.18;direction=north;notch=0;fontSize=12;container=0;" parent="124" vertex="1">
                    <mxGeometry x="200" width="20" height="20" as="geometry"/>
                </mxCell>
                <mxCell id="121" value="" style="html=1;shadow=0;dashed=0;align=center;verticalAlign=middle;shape=mxgraph.arrows2.arrow;dy=0.5;dx=11.18;direction=north;notch=0;fontSize=12;container=0;" parent="124" vertex="1">
                    <mxGeometry x="250" width="20" height="20" as="geometry"/>
                </mxCell>
                <mxCell id="122" value="" style="html=1;shadow=0;dashed=0;align=center;verticalAlign=middle;shape=mxgraph.arrows2.arrow;dy=0.5;dx=11.18;direction=north;notch=0;fontSize=12;container=0;" parent="124" vertex="1">
                    <mxGeometry x="300" width="20" height="20" as="geometry"/>
                </mxCell>
                <mxCell id="135" value="" style="group" parent="1" vertex="1" connectable="0">
                    <mxGeometry x="50" y="5" width="370" height="85" as="geometry"/>
                </mxCell>
                <mxCell id="125" value="" style="group" parent="135" vertex="1" connectable="0">
                    <mxGeometry y="65" width="370" height="20" as="geometry"/>
                </mxCell>
                <mxCell id="127" value="" style="html=1;shadow=0;dashed=0;align=center;verticalAlign=middle;shape=mxgraph.arrows2.arrow;dy=0.5;dx=11.18;direction=north;notch=0;fontSize=12;container=0;" parent="125" vertex="1">
                    <mxGeometry x="50" width="20" height="20" as="geometry"/>
                </mxCell>
                <mxCell id="128" value="" style="html=1;shadow=0;dashed=0;align=center;verticalAlign=middle;shape=mxgraph.arrows2.arrow;dy=0.5;dx=11.18;direction=north;notch=0;fontSize=12;container=0;" parent="125" vertex="1">
                    <mxGeometry x="100" width="20" height="20" as="geometry"/>
                </mxCell>
                <mxCell id="129" value="" style="html=1;shadow=0;dashed=0;align=center;verticalAlign=middle;shape=mxgraph.arrows2.arrow;dy=0.5;dx=11.18;direction=north;notch=0;fontSize=12;container=0;" parent="125" vertex="1">
                    <mxGeometry x="150" width="20" height="20" as="geometry"/>
                </mxCell>
                <mxCell id="130" value="" style="html=1;shadow=0;dashed=0;align=center;verticalAlign=middle;shape=mxgraph.arrows2.arrow;dy=0.5;dx=11.18;direction=north;notch=0;fontSize=12;container=0;" parent="125" vertex="1">
                    <mxGeometry x="200" width="20" height="20" as="geometry"/>
                </mxCell>
                <mxCell id="131" value="" style="html=1;shadow=0;dashed=0;align=center;verticalAlign=middle;shape=mxgraph.arrows2.arrow;dy=0.5;dx=11.18;direction=north;notch=0;fontSize=12;container=0;" parent="125" vertex="1">
                    <mxGeometry x="250" width="20" height="20" as="geometry"/>
                </mxCell>
                <mxCell id="132" value="" style="html=1;shadow=0;dashed=0;align=center;verticalAlign=middle;shape=mxgraph.arrows2.arrow;dy=0.5;dx=11.18;direction=north;notch=0;fontSize=12;container=0;" parent="125" vertex="1">
                    <mxGeometry x="300" width="20" height="20" as="geometry"/>
                </mxCell>
                <mxCell id="136" value="" style="group" parent="135" vertex="1" connectable="0">
                    <mxGeometry x="50" y="-5" width="320" height="65" as="geometry"/>
                </mxCell>
                <mxCell id="70" value="" style="rounded=1;whiteSpace=wrap;html=1;fontSize=12;container=0;" parent="136" vertex="1">
                    <mxGeometry width="20" height="65" as="geometry"/>
                </mxCell>
                <mxCell id="71" value="" style="ellipse;whiteSpace=wrap;html=1;aspect=fixed;fontSize=12;container=0;" parent="136" vertex="1">
                    <mxGeometry x="5" y="5" width="10" height="10" as="geometry"/>
                </mxCell>
                <mxCell id="72" value="" style="ellipse;whiteSpace=wrap;html=1;aspect=fixed;fontSize=12;container=0;" parent="136" vertex="1">
                    <mxGeometry x="5" y="20" width="10" height="10" as="geometry"/>
                </mxCell>
                <mxCell id="73" value="" style="ellipse;whiteSpace=wrap;html=1;aspect=fixed;fontSize=12;container=0;" parent="136" vertex="1">
                    <mxGeometry x="5" y="35" width="10" height="10" as="geometry"/>
                </mxCell>
                <mxCell id="74" value="" style="ellipse;whiteSpace=wrap;html=1;aspect=fixed;fontSize=12;container=0;" parent="136" vertex="1">
                    <mxGeometry x="5" y="50" width="10" height="10" as="geometry"/>
                </mxCell>
                <mxCell id="77" value="" style="rounded=1;whiteSpace=wrap;html=1;fontSize=12;container=0;" parent="136" vertex="1">
                    <mxGeometry x="50" width="20" height="65" as="geometry"/>
                </mxCell>
                <mxCell id="78" value="" style="ellipse;whiteSpace=wrap;html=1;aspect=fixed;fontSize=12;container=0;" parent="136" vertex="1">
                    <mxGeometry x="55" y="5" width="10" height="10" as="geometry"/>
                </mxCell>
                <mxCell id="79" value="" style="ellipse;whiteSpace=wrap;html=1;aspect=fixed;fontSize=12;container=0;" parent="136" vertex="1">
                    <mxGeometry x="55" y="20" width="10" height="10" as="geometry"/>
                </mxCell>
                <mxCell id="80" value="" style="ellipse;whiteSpace=wrap;html=1;aspect=fixed;fontSize=12;container=0;" parent="136" vertex="1">
                    <mxGeometry x="55" y="35" width="10" height="10" as="geometry"/>
                </mxCell>
                <mxCell id="81" value="" style="ellipse;whiteSpace=wrap;html=1;aspect=fixed;fontSize=12;container=0;" parent="136" vertex="1">
                    <mxGeometry x="55" y="50" width="10" height="10" as="geometry"/>
                </mxCell>
                <mxCell id="83" value="" style="rounded=1;whiteSpace=wrap;html=1;fontSize=12;container=0;" parent="136" vertex="1">
                    <mxGeometry x="100" width="20" height="65" as="geometry"/>
                </mxCell>
                <mxCell id="84" value="" style="ellipse;whiteSpace=wrap;html=1;aspect=fixed;fontSize=12;container=0;" parent="136" vertex="1">
                    <mxGeometry x="105" y="5" width="10" height="10" as="geometry"/>
                </mxCell>
                <mxCell id="85" value="" style="ellipse;whiteSpace=wrap;html=1;aspect=fixed;fontSize=12;container=0;" parent="136" vertex="1">
                    <mxGeometry x="105" y="20" width="10" height="10" as="geometry"/>
                </mxCell>
                <mxCell id="86" value="" style="ellipse;whiteSpace=wrap;html=1;aspect=fixed;fontSize=12;container=0;" parent="136" vertex="1">
                    <mxGeometry x="105" y="35" width="10" height="10" as="geometry"/>
                </mxCell>
                <mxCell id="87" value="" style="ellipse;whiteSpace=wrap;html=1;aspect=fixed;fontSize=12;container=0;" parent="136" vertex="1">
                    <mxGeometry x="105" y="50" width="10" height="10" as="geometry"/>
                </mxCell>
                <mxCell id="89" value="" style="rounded=1;whiteSpace=wrap;html=1;fontSize=12;container=0;" parent="136" vertex="1">
                    <mxGeometry x="150" width="20" height="65" as="geometry"/>
                </mxCell>
                <mxCell id="90" value="" style="ellipse;whiteSpace=wrap;html=1;aspect=fixed;fontSize=12;container=0;" parent="136" vertex="1">
                    <mxGeometry x="155" y="5" width="10" height="10" as="geometry"/>
                </mxCell>
                <mxCell id="91" value="" style="ellipse;whiteSpace=wrap;html=1;aspect=fixed;fontSize=12;container=0;" parent="136" vertex="1">
                    <mxGeometry x="155" y="20" width="10" height="10" as="geometry"/>
                </mxCell>
                <mxCell id="92" value="" style="ellipse;whiteSpace=wrap;html=1;aspect=fixed;fontSize=12;container=0;" parent="136" vertex="1">
                    <mxGeometry x="155" y="35" width="10" height="10" as="geometry"/>
                </mxCell>
                <mxCell id="93" value="" style="ellipse;whiteSpace=wrap;html=1;aspect=fixed;fontSize=12;container=0;" parent="136" vertex="1">
                    <mxGeometry x="155" y="50" width="10" height="10" as="geometry"/>
                </mxCell>
                <mxCell id="95" value="" style="rounded=1;whiteSpace=wrap;html=1;fontSize=12;container=0;" parent="136" vertex="1">
                    <mxGeometry x="200" width="20" height="65" as="geometry"/>
                </mxCell>
                <mxCell id="96" value="" style="ellipse;whiteSpace=wrap;html=1;aspect=fixed;fontSize=12;container=0;" parent="136" vertex="1">
                    <mxGeometry x="205" y="5" width="10" height="10" as="geometry"/>
                </mxCell>
                <mxCell id="97" value="" style="ellipse;whiteSpace=wrap;html=1;aspect=fixed;fontSize=12;container=0;" parent="136" vertex="1">
                    <mxGeometry x="205" y="20" width="10" height="10" as="geometry"/>
                </mxCell>
                <mxCell id="98" value="" style="ellipse;whiteSpace=wrap;html=1;aspect=fixed;fontSize=12;container=0;" parent="136" vertex="1">
                    <mxGeometry x="205" y="35" width="10" height="10" as="geometry"/>
                </mxCell>
                <mxCell id="99" value="" style="ellipse;whiteSpace=wrap;html=1;aspect=fixed;fontSize=12;container=0;" parent="136" vertex="1">
                    <mxGeometry x="205" y="50" width="10" height="10" as="geometry"/>
                </mxCell>
                <mxCell id="101" value="" style="rounded=1;whiteSpace=wrap;html=1;fontSize=12;container=0;" parent="136" vertex="1">
                    <mxGeometry x="250" width="20" height="65" as="geometry"/>
                </mxCell>
                <mxCell id="102" value="" style="ellipse;whiteSpace=wrap;html=1;aspect=fixed;fontSize=12;container=0;" parent="136" vertex="1">
                    <mxGeometry x="255" y="5" width="10" height="10" as="geometry"/>
                </mxCell>
                <mxCell id="103" value="" style="ellipse;whiteSpace=wrap;html=1;aspect=fixed;fontSize=12;container=0;" parent="136" vertex="1">
                    <mxGeometry x="255" y="20" width="10" height="10" as="geometry"/>
                </mxCell>
                <mxCell id="104" value="" style="ellipse;whiteSpace=wrap;html=1;aspect=fixed;fontSize=12;container=0;" parent="136" vertex="1">
                    <mxGeometry x="255" y="35" width="10" height="10" as="geometry"/>
                </mxCell>
                <mxCell id="105" value="" style="ellipse;whiteSpace=wrap;html=1;aspect=fixed;fontSize=12;container=0;" parent="136" vertex="1">
                    <mxGeometry x="255" y="50" width="10" height="10" as="geometry"/>
                </mxCell>
                <mxCell id="143" value="&lt;b&gt;B&lt;/b&gt;" style="text;html=1;strokeColor=none;fillColor=none;align=center;verticalAlign=middle;whiteSpace=wrap;rounded=0;fontSize=12;" parent="1" vertex="1">
                    <mxGeometry x="370" width="20" height="20" as="geometry"/>
                </mxCell>
                <mxCell id="144" value="&lt;b&gt;M&lt;/b&gt;" style="text;html=1;strokeColor=none;fillColor=none;align=center;verticalAlign=middle;whiteSpace=wrap;rounded=0;fontSize=12;" parent="1" vertex="1">
                    <mxGeometry x="370" y="15" width="20" height="20" as="geometry"/>
                </mxCell>
                <mxCell id="145" value="&lt;b&gt;E&lt;/b&gt;" style="text;html=1;strokeColor=none;fillColor=none;align=center;verticalAlign=middle;whiteSpace=wrap;rounded=0;fontSize=12;" parent="1" vertex="1">
                    <mxGeometry x="370" y="30" width="20" height="20" as="geometry"/>
                </mxCell>
                <mxCell id="146" value="&lt;b&gt;S&lt;/b&gt;" style="text;html=1;strokeColor=none;fillColor=none;align=center;verticalAlign=middle;whiteSpace=wrap;rounded=0;fontSize=12;" parent="1" vertex="1">
                    <mxGeometry x="370" y="45" width="20" height="20" as="geometry"/>
                </mxCell>
                <mxCell id="59" value="" style="html=1;shadow=0;dashed=0;align=center;verticalAlign=middle;shape=mxgraph.arrows2.arrow;dy=0.5;dx=11.18;direction=north;notch=0;fontSize=12;" parent="1" vertex="1">
                    <mxGeometry x="100" y="170" width="20" height="20" as="geometry"/>
                </mxCell>
                <mxCell id="60" value="" style="html=1;shadow=0;dashed=0;align=center;verticalAlign=middle;shape=mxgraph.arrows2.arrow;dy=0.5;dx=11.18;direction=north;notch=0;fontSize=12;" parent="1" vertex="1">
                    <mxGeometry x="150" y="170" width="20" height="20" as="geometry"/>
                </mxCell>
                <mxCell id="61" value="" style="html=1;shadow=0;dashed=0;align=center;verticalAlign=middle;shape=mxgraph.arrows2.arrow;dy=0.5;dx=11.18;direction=north;notch=0;fontSize=12;" parent="1" vertex="1">
                    <mxGeometry x="200" y="170" width="20" height="20" as="geometry"/>
                </mxCell>
                <mxCell id="62" value="" style="html=1;shadow=0;dashed=0;align=center;verticalAlign=middle;shape=mxgraph.arrows2.arrow;dy=0.5;dx=11.18;direction=north;notch=0;fontSize=12;" parent="1" vertex="1">
                    <mxGeometry x="250" y="170" width="20" height="20" as="geometry"/>
                </mxCell>
                <mxCell id="63" value="" style="html=1;shadow=0;dashed=0;align=center;verticalAlign=middle;shape=mxgraph.arrows2.arrow;dy=0.5;dx=11.18;direction=north;notch=0;fontSize=12;" parent="1" vertex="1">
                    <mxGeometry x="300" y="170" width="20" height="20" as="geometry"/>
                </mxCell>
                <mxCell id="64" value="" style="html=1;shadow=0;dashed=0;align=center;verticalAlign=middle;shape=mxgraph.arrows2.arrow;dy=0.5;dx=11.18;direction=north;notch=0;fontSize=12;" parent="1" vertex="1">
                    <mxGeometry x="350" y="170" width="20" height="20" as="geometry"/>
                </mxCell>
                <mxCell id="48" value="" style="html=1;shadow=0;dashed=0;align=center;verticalAlign=middle;shape=mxgraph.arrows2.arrow;dy=0.5;dx=11.18;direction=north;notch=0;fontSize=12;" parent="1" vertex="1">
                    <mxGeometry x="50" y="220" width="20" height="20" as="geometry"/>
                </mxCell>
                <mxCell id="50" value="" style="html=1;shadow=0;dashed=0;align=center;verticalAlign=middle;shape=mxgraph.arrows2.arrow;dy=0.5;dx=11.18;direction=north;notch=0;fontSize=12;" parent="1" vertex="1">
                    <mxGeometry x="100" y="220" width="20" height="20" as="geometry"/>
                </mxCell>
                <mxCell id="51" value="" style="html=1;shadow=0;dashed=0;align=center;verticalAlign=middle;shape=mxgraph.arrows2.arrow;dy=0.5;dx=11.18;direction=north;notch=0;fontSize=12;" parent="1" vertex="1">
                    <mxGeometry x="150" y="220" width="20" height="20" as="geometry"/>
                </mxCell>
                <mxCell id="52" value="" style="html=1;shadow=0;dashed=0;align=center;verticalAlign=middle;shape=mxgraph.arrows2.arrow;dy=0.5;dx=11.18;direction=north;notch=0;fontSize=12;" parent="1" vertex="1">
                    <mxGeometry x="200" y="220" width="20" height="20" as="geometry"/>
                </mxCell>
                <mxCell id="53" value="" style="html=1;shadow=0;dashed=0;align=center;verticalAlign=middle;shape=mxgraph.arrows2.arrow;dy=0.5;dx=11.18;direction=north;notch=0;fontSize=12;" parent="1" vertex="1">
                    <mxGeometry x="250" y="220" width="20" height="20" as="geometry"/>
                </mxCell>
                <mxCell id="54" value="" style="html=1;shadow=0;dashed=0;align=center;verticalAlign=middle;shape=mxgraph.arrows2.arrow;dy=0.5;dx=11.18;direction=north;notch=0;fontSize=12;" parent="1" vertex="1">
                    <mxGeometry x="300" y="220" width="20" height="20" as="geometry"/>
                </mxCell>
                <mxCell id="55" value="" style="html=1;shadow=0;dashed=0;align=center;verticalAlign=middle;shape=mxgraph.arrows2.arrow;dy=0.5;dx=11.18;direction=north;notch=0;fontSize=12;" parent="1" vertex="1">
                    <mxGeometry x="350" y="220" width="20" height="20" as="geometry"/>
                </mxCell>
                <mxCell id="56" value="" style="html=1;shadow=0;dashed=0;align=center;verticalAlign=middle;shape=mxgraph.arrows2.arrow;dy=0.5;dx=11.18;direction=north;notch=0;fontSize=12;" parent="1" vertex="1">
                    <mxGeometry x="400" y="220" width="20" height="20" as="geometry"/>
                </mxCell>
            </root>
        </mxGraphModel>
    </diagram>
</mxfile>